<?xml version="1.0" encoding="UTF-8"?>
<svg width="18px" height="19px" viewBox="0 0 18 19" version="1.1" xmlns="http://www.w3.org/2000/svg" xmlns:xlink="http://www.w3.org/1999/xlink">
    <!-- Generator: Sketch 46.2 (44496) - http://www.bohemiancoding.com/sketch -->
    <title>icon-client</title>
    <desc>Created with Sketch.</desc>
    <defs></defs>
    <g id="Page-1" stroke="none" stroke-width="1" fill="none" fill-rule="evenodd">
        <g id="icon-client" fill-rule="nonzero" fill="#919EAB">
            <path d="M2.10698811,0 C0.948351222,0 0,0.945724211 0,2.10115158 L0,17.8947368 L10.0277778,17.8947368 C9.31445339,17.1217105 9.10416667,16.2623358 8.97222222,15.7894737 L2.11111111,15.7894737 L2.11111111,2.10526316 L10.5555556,2.10526316 L10.5555556,11.5789474 C11.3637153,10.73602 12.1595049,10.5427632 12.6666667,10.5263158 L12.6666667,2.10115158 C12.6666667,0.945724211 11.7183165,0 10.5596786,0 L2.10698811,0 Z M3.16666667,3.15789474 L3.16666667,5.26315789 L5.27777778,5.26315789 L5.27777778,3.15789474 L3.16666667,3.15789474 Z M7.38888889,3.15789474 L7.38888889,5.26315789 L9.5,5.26315789 L9.5,3.15789474 L7.38888889,3.15789474 Z M3.16666667,6.31578947 L3.16666667,8.42105263 L5.27777778,8.42105263 L5.27777778,6.31578947 L3.16666667,6.31578947 Z M7.38888889,6.31578947 L7.38888889,8.42105263 L9.5,8.42105263 L9.5,6.31578947 L7.38888889,6.31578947 Z M3.16666667,9.47368421 L3.16666667,11.5789474 L5.27777778,11.5789474 L5.27777778,9.47368421 L3.16666667,9.47368421 Z M7.38888889,9.47368421 L7.38888889,11.5789474 L9.5,11.5789474 L9.5,9.47368421 L7.38888889,9.47368421 Z M14.2664931,11.5789474 C12.2213542,11.5789474 10.5555556,13.2401316 10.5555556,15.2796053 C10.5555556,17.3273032 12.2213542,18.9843747 14.2664931,18.9843747 C16.319879,18.9843747 17.9815536,17.3273032 17.9815536,15.2796053 C17.9815536,13.2401316 16.319879,11.5789474 14.2664931,11.5789474 Z M3.16666667,12.6315789 L3.16666667,14.7368421 L5.27777778,14.7368421 L5.27777778,12.6315789 L3.16666667,12.6315789 Z M7.38888889,12.6315789 L7.38888889,14.7368421 L8.96397622,14.7368421 L9.5,12.6315789 L7.38888889,12.6315789 Z M14.25,12.6315789 C14.8313799,12.6315789 15.3055556,13.1044411 15.3055556,13.6842105 C15.3055556,14.26398 14.8313799,14.7368421 14.25,14.7368421 C13.6686201,14.7368421 13.1944444,14.26398 13.1944444,13.6842105 C13.1944444,13.1044411 13.6686201,12.6315789 14.25,12.6315789 Z M14.2376299,15.5263158 C15.9199216,15.5263158 16.3611111,16.4473684 16.3611111,16.4473684 L16.3611111,17.3684211 L12.1388889,17.3684211 L12.1388889,16.4473684 C12.1388889,16.4473684 12.5553383,15.5263158 14.2376299,15.5263158 Z" id="Shape"></path>
        </g>
    </g>
</svg>