<?xml version="1.0" encoding="UTF-8"?>
<svg width="16px" height="20px" viewBox="0 0 16 20" version="1.1" xmlns="http://www.w3.org/2000/svg" xmlns:xlink="http://www.w3.org/1999/xlink">
    <!-- Generator: Sketch 46.2 (44496) - http://www.bohemiancoding.com/sketch -->
    <title>icon-po</title>
    <desc>Created with Sketch.</desc>
    <defs></defs>
    <g id="Page-1" stroke="none" stroke-width="1" fill="none" fill-rule="evenodd">
        <g id="icon-po" fill-rule="nonzero" fill="#919EAB">
            <path d="M2,0 C1.476563,0 0.941406,0.183594 0.5625,0.5625 C0.183594,0.941406 0,1.476563 0,2 L0,18 C0,18.523438 0.183594,19.058594 0.5625,19.4375 C0.941406,19.816406 1.476563,20 2,20 L14,20 C14.523438,20 15.058594,19.816406 15.4375,19.4375 C15.816406,19.058594 16,18.523438 16,18 L16,2 C16,1.476563 15.816406,0.941406 15.4375,0.5625 C15.058594,0.183594 14.523438,0 14,0 L2,0 Z M2,2 L14,2 L14,18 L2,18 L2,2 Z M4,5 L4,7 L12,7 L12,5 L4,5 Z M4,10 L4,12 L8,12 L8,10 L4,10 Z M10,10 L10,12 L12,12 L12,10 L10,10 Z M4,13 L4,15 L8,15 L8,13 L4,13 Z M10,13 L10,15 L12,15 L12,13 L10,13 Z" id="Shape"></path>
        </g>
    </g>
</svg>