<?xml version="1.0" encoding="utf-8"?>
<!-- Generator: Adobe Illustrator 18.0.0, SVG Export Plug-In . SVG Version: 6.00 Build 0)  -->
<!DOCTYPE svg PUBLIC "-//W3C//DTD SVG 1.1//EN" "http://www.w3.org/Graphics/SVG/1.1/DTD/svg11.dtd">
<svg version="1.1" id="Layer_1" xmlns="http://www.w3.org/2000/svg" xmlns:xlink="http://www.w3.org/1999/xlink" x="0px" y="0px"
	 viewBox="0 0 1000 1000" enable-background="new 0 0 1000 1000" xml:space="preserve">
<g>
	<g>
		<path fill="#49A046" d="M990.7,500c0,271-219.7,490.7-490.7,490.7C229,990.7,9.3,771,9.3,500C9.3,229,229,9.3,500,9.3
			C771,9.3,990.7,229,990.7,500z"/>
	</g>
	<g>
		<g>
			<path fill="#FFFFFF" d="M288.7,710.4c0.9-66.1,25.8-126.5,66.4-172.6C252.6,501.4,179,404.2,177.5,289.7h79.6
				c0,99.7,77.8,181.2,176,187.1c36.7-19,78.4-29.7,122.5-29.7c146.2,0,265,117.6,266.9,263.4H743c0-103.5-83.9-187.4-187.4-187.4
				c-103.5,0-187.4,83.9-187.4,187.4H288.7L288.7,710.4z"/>
		</g>
	</g>
</g>
</svg>
