<?xml version="1.0" encoding="UTF-8"?>
<svg width="18px" height="20px" viewBox="0 0 18 20" version="1.1" xmlns="http://www.w3.org/2000/svg" xmlns:xlink="http://www.w3.org/1999/xlink">
    <!-- Generator: Sketch 46.2 (44496) - http://www.bohemiancoding.com/sketch -->
    <title>icon-notifications</title>
    <desc>Created with Sketch.</desc>
    <defs></defs>
    <g id="Page-1" stroke="none" stroke-width="1" fill="none" fill-rule="evenodd">
        <g id="icon-notifications" fill-rule="nonzero" fill="#F4F6F8">
            <path d="M9,0 C8.199219,0 7.5,0.699219 7.5,1.5 L7.5,2.1875 C4.34375,2.871094 2,5.621094 2,9 L2,13.5 L0,15.8125 L0,17 L18,17 L18,15.8125 L16,13.5 L16,9 C16,5.621094 13.65625,2.871094 10.5,2.1875 L10.5,1.5 C10.5,0.699219 9.800781,0 9,0 Z M7,18 C7,19.101563 7.898438,20 9,20 C10.101563,20 11,19.101563 11,18 L7,18 Z" id="Shape"></path>
        </g>
    </g>
</svg>