<?xml version="1.0" encoding="UTF-8"?>
<svg width="20px" height="20px" viewBox="0 0 20 20" version="1.1" xmlns="http://www.w3.org/2000/svg" xmlns:xlink="http://www.w3.org/1999/xlink">
    <!-- Generator: Sketch 46.2 (44496) - http://www.bohemiancoding.com/sketch -->
    <title>icon-settings</title>
    <desc>Created with Sketch.</desc>
    <defs></defs>
    <g id="Page-1" stroke="none" stroke-width="1" fill="none" fill-rule="evenodd">
        <g id="icon-settings" fill-rule="nonzero" fill="#919EAB">
            <path d="M17.398438,11 C17.398438,10.699219 17.5,10.300781 17.5,10 C17.5,9.699219 17.5,9.300781 17.398438,9 L19.5,7.5 C19.699219,7.398438 19.800781,7.101563 19.601563,6.800781 L17.601563,3.300781 C17.5,3 17.199219,2.898438 17,3 L14.601563,4.101563 C14.101563,3.699219 13.398438,3.300781 12.800781,3.101563 L12.5,0.5 C12.5,0.199219 12.300781,0 12,0 L8,0 C7.699219,0 7.5,0.199219 7.5,0.5 L7.199219,3 C6.5,3.300781 5.898438,3.601563 5.398438,4 L3,3 C2.800781,2.898438 2.5,3 2.398438,3.199219 L0.398438,6.699219 C0.199219,7 0.199219,7.300781 0.5,7.398438 L2.601563,9 C2.601563,9.300781 2.5,9.699219 2.5,10 C2.5,10.300781 2.5,10.699219 2.601563,11 L0.5,12.5 C0.300781,12.601563 0.199219,12.898438 0.398438,13.199219 L2.398438,16.699219 C2.5,17 2.800781,17.101563 3,17 L5.398438,15.898438 C5.898438,16.300781 6.601563,16.699219 7.199219,16.898438 L7.5,19.5 C7.5,19.800781 7.699219,20 8,20 L12,20 C12.300781,20 12.5,19.800781 12.5,19.5 L12.800781,16.898438 C13.5,16.601563 14.101563,16.300781 14.601563,15.898438 L17,17 C17.199219,17.101563 17.5,17 17.601563,16.800781 L19.601563,13.300781 C19.699219,13.101563 19.699219,12.800781 19.5,12.601563 L17.398438,11 Z M10,14 C7.800781,14 6,12.199219 6,10 C6,7.800781 7.800781,6 10,6 C12.199219,6 14,7.800781 14,10 C14,12.199219 12.199219,14 10,14 Z" id="Shape"></path>
        </g>
    </g>
</svg>